<?xml version="1.0" standalone="no"?>
<!DOCTYPE svg PUBLIC "-//W3C//DTD SVG 20010904//EN"
 "http://www.w3.org/TR/2001/REC-SVG-20010904/DTD/svg10.dtd">
<svg version="1.0" xmlns="http://www.w3.org/2000/svg"
 width="700.000000pt" height="700.000000pt" viewBox="0 0 700.000000 700.000000"
 preserveAspectRatio="xMidYMid meet">
<metadata>
Created by potrace 1.11, written by Peter Selinger 2001-2013
</metadata>
<g transform="translate(0.000000,700.000000) scale(0.100000,-0.100000)"
fill="#000000" stroke="none">
<path d="M80 6982 c-19 -9 -45 -32 -57 -51 l-23 -34 2 -1068 3 -1068 21 -28
c65 -87 192 -84 243 7 21 37 21 40 21 901 l0 864 1053 -1052 c718 -718 1063
-1057 1087 -1066 107 -43 218 58 188 170 -8 32 -178 207 -1066 1096 l-1057
1057 863 0 c782 0 866 2 895 16 106 55 104 202 -4 256 -32 17 -104 18 -1084
18 -980 0 -1052 -1 -1085 -18z"/>
<path d="M4760 6989 c-83 -34 -115 -127 -69 -208 42 -75 -12 -71 952 -71 l862
0 -1050 -1050 c-678 -677 -1056 -1062 -1066 -1085 -42 -94 30 -198 136 -198
23 0 53 8 66 17 13 9 495 488 1072 1064 l1047 1047 0 -864 0 -863 21 -39 c56
-98 199 -92 252 12 16 32 17 100 15 1096 -3 1056 -3 1062 -24 1090 -11 15 -36
36 -55 45 -32 17 -103 18 -1084 17 -668 0 -1059 -4 -1075 -10z"/>
<path d="M2437 2615 c-21 -7 -40 -15 -43 -17 -2 -1 -476 -475 -1054 -1052
l-1050 -1050 0 863 c0 933 3 887 -54 940 -19 18 -41 26 -81 29 -48 4 -59 1
-90 -22 -70 -53 -65 27 -65 -1144 l0 -1059 23 -34 c49 -74 -30 -69 1147 -69
1035 0 1056 0 1088 20 51 31 74 76 69 136 -4 58 -28 96 -74 119 -28 14 -134
16 -894 16 l-862 1 1056 1056 c1125 1127 1089 1087 1067 1161 -25 88 -104 134
-183 106z"/>
<path d="M4458 2607 c-69 -35 -99 -109 -71 -177 9 -24 348 -369 1065 -1087
l1051 -1051 -859 -1 c-518 0 -870 -4 -885 -9 -13 -6 -37 -24 -54 -42 -27 -28
-30 -38 -30 -95 0 -54 4 -68 25 -90 53 -57 1 -55 1142 -55 1033 0 1054 0 1086
20 18 11 41 34 52 52 20 32 20 53 20 1086 0 866 -2 1058 -14 1085 -48 115
-213 117 -263 4 -10 -22 -13 -222 -13 -890 l0 -862 -1057 1057 c-582 581
-1067 1059 -1078 1062 -53 15 -76 13 -117 -7z"/>
</g>
</svg>
